# Blender v2.80 (sub 45) OBJ File: 'fence.blend'
# www.blender.org
mtllib concretebarrier.mtl
o ConcreteBarier_Cube.002
v -1.000000 0.053849 0.240951
v -1.000000 0.053849 -0.240951
v 1.000000 0.053849 0.240951
v 1.000000 0.053849 -0.240951
v -1.000000 0.284349 0.111490
v -1.000000 0.284349 -0.111490
v 1.000000 0.284349 -0.111490
v 1.000000 0.284349 0.111490
v -1.000000 -0.007728 -0.240951
v -1.000000 -0.007728 0.240951
v 1.000000 -0.007728 -0.240951
v 1.000000 -0.007728 0.240951
v 0.392783 0.053849 -0.240951
v 0.246979 0.053849 -0.240951
v -0.246979 0.053849 -0.240951
v -0.392783 0.053849 -0.240951
v -0.392783 0.053849 0.240951
v -0.246979 0.053849 0.240951
v 0.246979 0.053849 0.240951
v 0.392783 0.053849 0.240951
v 0.392783 0.284349 0.111490
v 0.246979 0.284349 0.111490
v -0.246979 0.284349 0.111490
v -0.392783 0.284349 0.111490
v -0.392783 0.284349 -0.111490
v -0.246979 0.284349 -0.111490
v 0.246979 0.284349 -0.111490
v 0.392783 0.284349 -0.111490
v 0.392783 -0.007728 -0.240951
v 0.246979 -0.007728 -0.240951
v -0.246979 -0.007728 -0.240951
v -0.392783 -0.007728 -0.240951
v -0.392783 -0.007728 0.240951
v -0.246979 -0.007728 0.240951
v 0.246979 -0.007728 0.240951
v 0.392783 -0.007728 0.240951
v 0.392783 0.043018 -0.240951
v 0.246979 0.043018 -0.240951
v -0.246979 0.043018 -0.240951
v -0.392783 0.043018 -0.240951
v -0.392783 0.043018 0.240951
v -0.246979 0.043018 0.240951
v 0.246979 0.043018 0.240951
v 0.392783 0.043018 0.240951
v -1.000000 0.769413 0.085818
v -1.000000 0.792272 0.061717
v -1.000000 0.792272 -0.061717
v -1.000000 0.769413 -0.085818
v 1.000000 0.792272 0.061717
v 1.000000 0.769413 0.085818
v 1.000000 0.769413 -0.085818
v 1.000000 0.792272 -0.061717
v -0.392783 0.792272 -0.061717
v -0.392783 0.769413 -0.085818
v -0.246979 0.792272 -0.061717
v -0.246979 0.769413 -0.085818
v 0.246979 0.792272 -0.061717
v 0.246979 0.769413 -0.085818
v 0.392783 0.769413 -0.085818
v 0.392783 0.792272 -0.061717
v 0.392783 0.792272 0.061717
v 0.392783 0.769413 0.085818
v 0.246979 0.792272 0.061717
v 0.246979 0.769413 0.085818
v -0.246979 0.792272 0.061717
v -0.246979 0.769413 0.085818
v -0.392783 0.769413 0.085818
v -0.392783 0.792272 0.061717
v -0.319881 0.876152 0.007572
v -0.319881 0.868573 0.010615
v -0.319881 0.861136 0.007431
v -0.319881 0.858103 0.000000
v -0.319881 0.861136 -0.007431
v -0.319881 0.868573 -0.010615
v -0.319881 0.876152 -0.007572
v -0.319881 0.879327 0.000000
v -0.343511 0.871452 0.007572
v -0.340610 0.864450 0.010615
v -0.337764 0.857578 0.007431
v -0.336604 0.854777 0.000000
v -0.337764 0.857578 -0.007431
v -0.340610 0.864450 -0.010615
v -0.343511 0.871452 -0.007572
v -0.344725 0.874385 0.000000
v -0.363543 0.858067 0.007572
v -0.358184 0.852708 0.010615
v -0.352925 0.847449 0.007431
v -0.350780 0.845304 0.000000
v -0.352925 0.847449 -0.007431
v -0.358184 0.852708 -0.010615
v -0.363543 0.858067 -0.007572
v -0.365787 0.860312 0.000000
v -0.376928 0.838035 0.007572
v -0.369926 0.835134 0.010615
v -0.363055 0.832288 0.007431
v -0.360253 0.831127 0.000000
v -0.363055 0.832288 -0.007431
v -0.369926 0.835134 -0.010615
v -0.376928 0.838035 -0.007572
v -0.379861 0.839249 0.000000
v 0.254959 0.814405 0.000000
v 0.258134 0.814405 -0.007572
v 0.265712 0.814405 -0.010615
v 0.273150 0.814405 -0.007431
v 0.276183 0.814405 0.000000
v 0.273150 0.814405 0.007431
v 0.265712 0.814405 0.010615
v 0.258134 0.814405 0.007572
v 0.259901 0.839249 0.000000
v 0.262834 0.838035 -0.007572
v 0.269836 0.835134 -0.010615
v 0.276707 0.832288 -0.007431
v 0.279509 0.831127 0.000000
v 0.276707 0.832288 0.007431
v 0.269836 0.835134 0.010615
v 0.262834 0.838035 0.007572
v 0.273974 0.860312 0.000000
v 0.276219 0.858067 -0.007572
v 0.281578 0.852708 -0.010615
v 0.286837 0.847449 -0.007431
v 0.288982 0.845304 0.000000
v 0.286837 0.847449 0.007431
v 0.281578 0.852708 0.010615
v 0.276219 0.858067 0.007572
v 0.295036 0.874385 0.000000
v 0.296251 0.871452 -0.007572
v 0.299152 0.864450 -0.010615
v 0.301998 0.857578 -0.007431
v 0.303158 0.854777 0.000000
v 0.301998 0.857578 0.007431
v 0.299152 0.864450 0.010615
v 0.296251 0.871452 0.007572
v 0.319881 0.879327 0.000000
v 0.319881 0.876152 -0.007572
v 0.319881 0.868573 -0.010615
v 0.319881 0.861136 -0.007431
v 0.319881 0.858103 0.000000
v 0.319881 0.861136 0.007431
v 0.319881 0.868573 0.010615
v 0.319881 0.876152 0.007572
v 0.344725 0.874385 0.000000
v 0.343511 0.871452 -0.007572
v 0.340610 0.864450 -0.010615
v 0.337764 0.857578 -0.007431
v 0.336604 0.854777 0.000000
v 0.337764 0.857578 0.007431
v 0.340610 0.864450 0.010615
v 0.343511 0.871452 0.007572
v 0.365788 0.860312 0.000000
v 0.363543 0.858067 -0.007572
v 0.358184 0.852708 -0.010615
v 0.352925 0.847449 -0.007431
v 0.350780 0.845304 0.000000
v 0.352925 0.847449 0.007431
v 0.358184 0.852708 0.010615
v 0.363543 0.858067 0.007572
v 0.379861 0.839249 0.000000
v 0.376928 0.838035 -0.007572
v 0.369926 0.835134 -0.010615
v 0.363055 0.832288 -0.007431
v 0.360253 0.831127 0.000000
v 0.363055 0.832288 0.007431
v 0.369926 0.835134 0.010615
v 0.376928 0.838035 0.007572
v 0.384803 0.814405 0.000000
v 0.381628 0.814405 -0.007572
v 0.374049 0.814405 -0.010615
v 0.366612 0.814405 -0.007431
v 0.363579 0.814405 0.000000
v 0.366612 0.814405 0.007431
v 0.374049 0.814405 0.010615
v 0.381628 0.814405 0.007572
v -0.381628 0.814405 0.007572
v -0.374049 0.814405 0.010615
v -0.366612 0.814405 0.007431
v -0.363579 0.814405 0.000000
v -0.366612 0.814405 -0.007431
v -0.374049 0.814405 -0.010615
v -0.381628 0.814405 -0.007572
v -0.384803 0.814405 0.000000
v 0.381628 0.780720 0.007572
v 0.374049 0.780720 0.010615
v 0.366612 0.780720 0.007431
v 0.363579 0.780720 0.000000
v 0.366612 0.780720 -0.007431
v 0.374049 0.780720 -0.010615
v 0.381628 0.780720 -0.007572
v 0.384803 0.780720 0.000000
v 0.258134 0.780720 0.007572
v 0.265712 0.780720 0.010615
v 0.273150 0.780720 0.007431
v 0.276183 0.780720 0.000000
v 0.273150 0.780720 -0.007431
v 0.265712 0.780720 -0.010615
v 0.258134 0.780720 -0.007572
v 0.254959 0.780720 0.000000
v -0.295036 0.874385 0.000000
v -0.296251 0.871452 -0.007572
v -0.299152 0.864450 -0.010615
v -0.301998 0.857578 -0.007431
v -0.303158 0.854777 0.000000
v -0.301998 0.857578 0.007431
v -0.299152 0.864450 0.010615
v -0.296251 0.871452 0.007572
v -0.273974 0.860312 0.000000
v -0.276219 0.858067 -0.007572
v -0.281578 0.852708 -0.010615
v -0.286837 0.847449 -0.007431
v -0.288982 0.845304 0.000000
v -0.286837 0.847449 0.007431
v -0.281578 0.852708 0.010615
v -0.276219 0.858067 0.007572
v -0.259901 0.839249 0.000000
v -0.262834 0.838035 -0.007572
v -0.269836 0.835134 -0.010615
v -0.276707 0.832288 -0.007431
v -0.279509 0.831127 0.000000
v -0.276707 0.832288 0.007431
v -0.269836 0.835134 0.010615
v -0.262834 0.838035 0.007572
v -0.254959 0.814405 0.000000
v -0.258134 0.814405 -0.007572
v -0.265712 0.814405 -0.010615
v -0.273150 0.814405 -0.007431
v -0.276183 0.814405 0.000000
v -0.273150 0.814405 0.007431
v -0.265712 0.814405 0.010615
v -0.258134 0.814405 0.007572
v -0.258134 0.780720 0.007572
v -0.265712 0.780720 0.010615
v -0.273150 0.780720 0.007431
v -0.276183 0.780720 0.000000
v -0.273150 0.780720 -0.007431
v -0.265712 0.780720 -0.010615
v -0.258134 0.780720 -0.007572
v -0.254959 0.780720 0.000000
v -0.381628 0.780720 0.007572
v -0.374049 0.780720 0.010615
v -0.366612 0.780720 0.007431
v -0.363579 0.780720 0.000000
v -0.366612 0.780720 -0.007431
v -0.374049 0.780720 -0.010615
v -0.381628 0.780720 -0.007572
v -0.384803 0.780720 0.000000
vn -0.0000 1.0000 0.0000
vn 0.0000 0.0529 -0.9986
vn 0.0000 0.0529 0.9986
vn -1.0000 -0.0000 0.0000
vn 0.0000 0.0000 1.0000
vn 0.0000 0.4897 0.8719
vn 1.0000 0.0000 0.0000
vn -0.0000 0.4897 -0.8719
vn 0.0000 -1.0000 0.0000
vn 0.0000 0.0000 -1.0000
vn 0.0000 0.7256 -0.6882
vn -0.0000 0.7256 0.6882
vn 0.5138 0.7690 0.3803
vn 0.2105 0.3150 0.9255
vn -0.2223 -0.3327 0.9165
vn -0.5158 -0.7719 0.3716
vn -0.5158 -0.7719 -0.3716
vn -0.2223 -0.3327 -0.9165
vn 0.2105 0.3150 -0.9255
vn 0.5138 0.7690 -0.3803
vn 0.1804 0.9071 0.3803
vn 0.0739 0.3716 0.9255
vn -0.0781 -0.3924 0.9165
vn -0.1811 -0.9106 0.3716
vn -0.1811 -0.9106 -0.3716
vn -0.0781 -0.3924 -0.9165
vn 0.0739 0.3716 -0.9255
vn 0.1804 0.9071 -0.3803
vn -0.1804 0.9071 0.3803
vn -0.0739 0.3716 0.9255
vn 0.0781 -0.3924 0.9165
vn 0.1811 -0.9106 0.3716
vn 0.1811 -0.9106 -0.3716
vn 0.0781 -0.3924 -0.9165
vn -0.0739 0.3716 -0.9255
vn -0.1804 0.9071 -0.3803
vn -0.5138 0.7690 0.3803
vn -0.2105 0.3150 0.9255
vn 0.2223 -0.3327 0.9165
vn 0.5158 -0.7719 0.3716
vn 0.5158 -0.7719 -0.3716
vn 0.2223 -0.3327 -0.9165
vn -0.2105 0.3150 -0.9255
vn -0.5138 0.7690 -0.3803
vn -0.9071 0.1804 -0.3803
vn -0.3716 0.0739 -0.9255
vn 0.3924 -0.0781 -0.9165
vn 0.9106 -0.1811 -0.3716
vn 0.9106 -0.1811 0.3716
vn 0.3924 -0.0781 0.9165
vn -0.3716 0.0739 0.9255
vn -0.9071 0.1804 0.3803
vn -0.7690 0.5138 -0.3803
vn -0.3150 0.2105 -0.9255
vn 0.3327 -0.2223 -0.9165
vn 0.7719 -0.5158 -0.3716
vn 0.7719 -0.5158 0.3716
vn 0.3327 -0.2223 0.9165
vn -0.3150 0.2105 0.9255
vn -0.7690 0.5138 0.3803
vn 0.7690 0.5138 -0.3803
vn 0.3150 0.2105 -0.9255
vn -0.3327 -0.2223 -0.9165
vn -0.7719 -0.5158 -0.3716
vn -0.7719 -0.5158 0.3716
vn -0.3327 -0.2223 0.9165
vn 0.3150 0.2105 0.9255
vn 0.7690 0.5138 0.3803
vn 0.9071 0.1804 -0.3803
vn 0.3716 0.0739 -0.9255
vn -0.3924 -0.0781 -0.9165
vn -0.9106 -0.1811 -0.3716
vn -0.9106 -0.1811 0.3716
vn -0.3924 -0.0781 0.9165
vn 0.3716 0.0739 0.9255
vn 0.9071 0.1804 0.3803
vn -0.9222 0.0000 -0.3866
vn -0.3726 0.0000 0.9280
vn 0.3936 0.0000 -0.9193
vn 0.3726 0.0000 -0.9280
vn -0.9222 0.0000 0.3866
vn -0.3726 0.0000 -0.9280
vn -0.3936 0.0000 0.9193
vn 0.3726 0.0000 0.9280
vn 0.3936 0.0000 0.9193
vn -0.9259 0.0000 0.3778
vn -0.3936 0.0000 -0.9193
vn 0.9222 0.0000 -0.3866
vn 0.9259 0.0000 -0.3778
vn 0.9222 0.0000 0.3866
vn 0.9259 0.0000 0.3778
vn -0.9259 0.0000 -0.3778
usemtl Concrete
s off
f 53//1 47//1 46//1 68//1
f 25//2 54//2 56//2 26//2
f 8//3 50//3 62//3 21//3
f 5//4 45//4 46//4 47//4 48//4 6//4
f 17//5 1//5 10//5 33//5
f 6//2 48//2 54//2 25//2
f 17//6 24//6 5//6 1//6
f 4//7 7//7 8//7 3//7
f 13//8 28//8 7//8 4//8
f 1//4 5//4 6//4 2//4
f 29//9 11//9 12//9 36//9
f 13//10 4//10 11//10 29//10
f 1//4 2//4 9//4 10//4
f 4//7 3//7 12//7 11//7
f 2//10 16//10 32//10 9//10
f 16//10 15//10 39//10 40//10
f 15//10 14//10 30//10 31//10
f 18//5 17//5 41//5 42//5
f 9//9 32//9 33//9 10//9
f 31//4 34//4 42//4 39//4
f 31//9 30//9 35//9 34//9
f 29//4 36//4 44//4 37//4
f 2//8 6//8 25//8 16//8
f 16//8 25//8 26//8 15//8
f 15//8 26//8 27//8 14//8
f 14//8 27//8 28//8 13//8
f 3//6 8//6 21//6 20//6
f 20//6 21//6 22//6 19//6
f 19//6 22//6 23//6 18//6
f 18//6 23//6 24//6 17//6
f 7//7 51//7 52//7 49//7 50//7 8//7
f 21//3 62//3 64//3 22//3
f 27//2 58//2 59//2 28//2
f 26//2 56//2 58//2 27//2
f 3//5 20//5 36//5 12//5
f 19//5 18//5 34//5 35//5
f 28//2 59//2 51//2 7//2
f 22//3 64//3 66//3 23//3
f 23//3 66//3 67//3 24//3
f 52//1 60//1 61//1 49//1
f 55//1 53//1 68//1 65//1
f 57//1 55//1 65//1 63//1
f 60//1 57//1 63//1 61//1
f 40//9 39//9 42//9 41//9
f 38//9 37//9 44//9 43//9
f 35//7 30//7 38//7 43//7
f 14//10 13//10 37//10 38//10
f 33//7 32//7 40//7 41//7
f 20//5 19//5 43//5 44//5
f 60//11 52//11 51//11 59//11
f 68//12 46//12 45//12 67//12
f 47//11 53//11 54//11 48//11
f 53//11 55//11 56//11 54//11
f 55//11 57//11 58//11 56//11
f 57//11 60//11 59//11 58//11
f 49//12 61//12 62//12 50//12
f 61//12 63//12 64//12 62//12
f 63//12 65//12 66//12 64//12
f 65//12 68//12 67//12 66//12
f 24//3 67//3 45//3 5//3
usemtl Metal
f 204//13 212//13 205//13 197//13
f 203//14 211//14 212//14 204//14
f 202//15 210//15 211//15 203//15
f 201//16 209//16 210//16 202//16
f 200//17 208//17 209//17 201//17
f 199//18 207//18 208//18 200//18
f 198//19 206//19 207//19 199//19
f 197//20 205//20 206//20 198//20
f 69//21 204//21 197//21 76//21
f 70//22 203//22 204//22 69//22
f 71//23 202//23 203//23 70//23
f 72//24 201//24 202//24 71//24
f 73//25 200//25 201//25 72//25
f 74//26 199//26 200//26 73//26
f 75//27 198//27 199//27 74//27
f 76//28 197//28 198//28 75//28
f 77//29 69//29 76//29 84//29
f 78//30 70//30 69//30 77//30
f 79//31 71//31 70//31 78//31
f 80//32 72//32 71//32 79//32
f 81//33 73//33 72//33 80//33
f 82//34 74//34 73//34 81//34
f 83//35 75//35 74//35 82//35
f 84//36 76//36 75//36 83//36
f 85//37 77//37 84//37 92//37
f 86//38 78//38 77//38 85//38
f 87//39 79//39 78//39 86//39
f 88//40 80//40 79//40 87//40
f 89//41 81//41 80//41 88//41
f 90//42 82//42 81//42 89//42
f 91//43 83//43 82//43 90//43
f 92//44 84//44 83//44 91//44
f 101//45 109//45 110//45 102//45
f 102//46 110//46 111//46 103//46
f 103//47 111//47 112//47 104//47
f 104//48 112//48 113//48 105//48
f 105//49 113//49 114//49 106//49
f 106//50 114//50 115//50 107//50
f 107//51 115//51 116//51 108//51
f 108//52 116//52 109//52 101//52
f 109//53 117//53 118//53 110//53
f 110//54 118//54 119//54 111//54
f 111//55 119//55 120//55 112//55
f 112//56 120//56 121//56 113//56
f 113//57 121//57 122//57 114//57
f 114//58 122//58 123//58 115//58
f 115//59 123//59 124//59 116//59
f 116//60 124//60 117//60 109//60
f 117//44 125//44 126//44 118//44
f 118//43 126//43 127//43 119//43
f 119//42 127//42 128//42 120//42
f 120//41 128//41 129//41 121//41
f 121//40 129//40 130//40 122//40
f 122//39 130//39 131//39 123//39
f 123//38 131//38 132//38 124//38
f 124//37 132//37 125//37 117//37
f 125//36 133//36 134//36 126//36
f 126//35 134//35 135//35 127//35
f 127//34 135//34 136//34 128//34
f 128//33 136//33 137//33 129//33
f 129//32 137//32 138//32 130//32
f 130//31 138//31 139//31 131//31
f 131//30 139//30 140//30 132//30
f 132//29 140//29 133//29 125//29
f 133//28 141//28 142//28 134//28
f 134//27 142//27 143//27 135//27
f 135//26 143//26 144//26 136//26
f 136//25 144//25 145//25 137//25
f 137//24 145//24 146//24 138//24
f 138//23 146//23 147//23 139//23
f 139//22 147//22 148//22 140//22
f 140//21 148//21 141//21 133//21
f 141//20 149//20 150//20 142//20
f 142//19 150//19 151//19 143//19
f 143//18 151//18 152//18 144//18
f 144//17 152//17 153//17 145//17
f 145//16 153//16 154//16 146//16
f 146//15 154//15 155//15 147//15
f 147//14 155//14 156//14 148//14
f 148//13 156//13 149//13 141//13
f 149//61 157//61 158//61 150//61
f 150//62 158//62 159//62 151//62
f 151//63 159//63 160//63 152//63
f 152//64 160//64 161//64 153//64
f 153//65 161//65 162//65 154//65
f 154//66 162//66 163//66 155//66
f 155//67 163//67 164//67 156//67
f 156//68 164//68 157//68 149//68
f 157//69 165//69 166//69 158//69
f 158//70 166//70 167//70 159//70
f 159//71 167//71 168//71 160//71
f 160//72 168//72 169//72 161//72
f 161//73 169//73 170//73 162//73
f 162//74 170//74 171//74 163//74
f 163//75 171//75 172//75 164//75
f 164//76 172//76 165//76 157//76
f 93//60 85//60 92//60 100//60
f 94//59 86//59 85//59 93//59
f 95//58 87//58 86//58 94//58
f 96//57 88//57 87//57 95//57
f 97//56 89//56 88//56 96//56
f 98//55 90//55 89//55 97//55
f 99//54 91//54 90//54 98//54
f 100//53 92//53 91//53 99//53
f 173//52 93//52 100//52 180//52
f 174//51 94//51 93//51 173//51
f 175//50 95//50 94//50 174//50
f 176//49 96//49 95//49 175//49
f 177//48 97//48 96//48 176//48
f 178//47 98//47 97//47 177//47
f 179//46 99//46 98//46 178//46
f 180//45 100//45 99//45 179//45
f 101//77 102//77 195//77 196//77
f 107//78 108//78 189//78 190//78
f 103//79 104//79 193//79 194//79
f 167//80 166//80 187//80 186//80
f 108//81 101//81 196//81 189//81
f 102//82 103//82 194//82 195//82
f 171//83 170//83 183//83 182//83
f 172//84 171//84 182//84 181//84
f 106//85 107//85 190//85 191//85
f 170//86 169//86 184//86 183//86
f 168//87 167//87 186//87 185//87
f 166//88 165//88 188//88 187//88
f 104//89 105//89 192//89 193//89
f 165//90 172//90 181//90 188//90
f 105//91 106//91 191//91 192//91
f 169//92 168//92 185//92 184//92
f 205//61 213//61 214//61 206//61
f 206//62 214//62 215//62 207//62
f 207//63 215//63 216//63 208//63
f 208//64 216//64 217//64 209//64
f 209//65 217//65 218//65 210//65
f 210//66 218//66 219//66 211//66
f 211//67 219//67 220//67 212//67
f 212//68 220//68 213//68 205//68
f 213//69 221//69 222//69 214//69
f 214//70 222//70 223//70 215//70
f 215//71 223//71 224//71 216//71
f 216//72 224//72 225//72 217//72
f 217//73 225//73 226//73 218//73
f 218//74 226//74 227//74 219//74
f 219//75 227//75 228//75 220//75
f 220//76 228//76 221//76 213//76
f 180//77 179//77 243//77 244//77
f 174//78 173//78 237//78 238//78
f 178//79 177//79 241//79 242//79
f 223//80 222//80 235//80 234//80
f 173//81 180//81 244//81 237//81
f 179//82 178//82 242//82 243//82
f 227//83 226//83 231//83 230//83
f 228//84 227//84 230//84 229//84
f 175//85 174//85 238//85 239//85
f 226//86 225//86 232//86 231//86
f 224//87 223//87 234//87 233//87
f 222//88 221//88 236//88 235//88
f 177//89 176//89 240//89 241//89
f 221//90 228//90 229//90 236//90
f 176//91 175//91 239//91 240//91
f 225//92 224//92 233//92 232//92
